<svg width="1280" height="160" viewBox="0 0 1280 160" fill="none" xmlns="http://www.w3.org/2000/svg">
<path fill-rule="evenodd" clip-rule="evenodd" d="M0 51.4226L36 60.392C71 69.3615 142 87.3003 213 84.4679C284 81.6354 356 57.0875 427 54.255C498 51.4226 569 69.3615 640 87.3003C711 105.711 782 123.65 853 105.711C924 87.3003 996 33.0116 1067 11.7682C1138 -9.00312 1209 2.79877 1244 8.93576L1280 15.0727V160H1244C1209 160 1138 160 1067 160C996 160 924 160 853 160C782 160 711 160 640 160C569 160 498 160 427 160C356 160 284 160 213 160C142 160 71 160 36 160H0V51.4226Z" fill="white"/>
</svg>
